<?xml version="1.0" encoding="UTF-8"?>
<svg xmlns="http://www.w3.org/2000/svg" viewBox="0 0 1300 940" width="1300" height="940" role="img" aria-label="Containers — sample-monorepo">
<defs>
  <marker id="arrow-b587a814" viewBox="0 0 10 10" refX="9" refY="5" markerWidth="7" markerHeight="7"
          orient="auto-start-reverse"><path d="M 0 0 L 10 5 L 0 10 z" fill="#64748b"/></marker>
  <marker id="arrow-open-b587a814" viewBox="0 0 10 10" refX="9" refY="5" markerWidth="8" markerHeight="8"
          orient="auto-start-reverse"><path d="M 0 0 L 10 5 L 0 10" fill="none" stroke="#64748b"
          stroke-width="1.6"/></marker>
  <filter id="soft-b587a814" x="-20%" y="-20%" width="140%" height="140%">
    <feDropShadow dx="0" dy="1.5" stdDeviation="2.2" flood-color="#0f172a" flood-opacity="0.10"/>
  </filter>
</defs>
<rect width="100%" height="100%" fill="#ffffff"/>
<text x="28" y="34" font-family="Inter, 'Helvetica Neue', Helvetica, Arial, sans-serif" font-size="18" font-weight="700" fill="#111827">Containers — sample-monorepo</text>
<text x="28" y="50" font-family="Inter, 'Helvetica Neue', Helvetica, Arial, sans-serif" font-size="11.5" fill="#6b7280">Deployable/publishable units, their technology and their data stores</text>
<g transform="translate(0,58)">
<path d="M 136.3 290.0 Q 136.3 349.0 125.7 349.0 Q 115.0 349.0 115.0 378.5 L 115.0 408.0" fill="none" stroke="#64748b" stroke-width="1.90" marker-end="url(#arrow-b587a814)" opacity="0.85"/>
<rect x="89.0" y="340.0" width="52.0" height="16" rx="8" fill="#ffffff" opacity="0.92"/><text x="115.0" y="352.0" text-anchor="middle" font-family="Inter, 'Helvetica Neue', Helvetica, Arial, sans-serif" font-size="10.5" fill="#6b7280">depends</text>
<path d="M 390.3 290.0 Q 390.3 349.0 252.7 349.0 Q 115.0 349.0 115.0 378.5 L 115.0 408.0" fill="none" stroke="#94a3b8" stroke-width="1.79" marker-end="url(#arrow-b587a814)" opacity="0.85"/>
<rect x="89.0" y="340.0" width="52.0" height="16" rx="8" fill="#ffffff" opacity="0.92"/><text x="115.0" y="352.0" text-anchor="middle" font-family="Inter, 'Helvetica Neue', Helvetica, Arial, sans-serif" font-size="10.5" fill="#6b7280">depends</text>
<path d="M 390.3 290.0 Q 390.3 441.0 252.7 441.0 Q 115.0 441.0 115.0 516.5 L 115.0 592.0" fill="none" stroke="#94a3b8" stroke-width="1.45" marker-end="url(#arrow-b587a814)" opacity="0.85"/>
<rect x="53.0" y="432.0" width="124.0" height="16" rx="8" fill="#ffffff" opacity="0.92"/><text x="115.0" y="444.0" text-anchor="middle" font-family="Inter, 'Helvetica Neue', Helvetica, Arial, sans-serif" font-size="10.5" fill="#6b7280">Amazon Web Services</text>
<path d="M 136.3 290.0 Q 136.3 441.0 538.6 441.0 Q 941.0 441.0 941.0 516.5 L 941.0 592.0" fill="none" stroke="#94a3b8" stroke-width="1.45" marker-end="url(#arrow-b587a814)" opacity="0.85"/>
<rect x="921.0" y="432.0" width="40.0" height="16" rx="8" fill="#ffffff" opacity="0.92"/><text x="941.0" y="444.0" text-anchor="middle" font-family="Inter, 'Helvetica Neue', Helvetica, Arial, sans-serif" font-size="10.5" fill="#6b7280">HTTPS</text>
<path d="M 136.3 290.0 Q 136.3 441.0 319.6 441.0 Q 503.0 441.0 503.0 516.5 L 503.0 592.0" fill="none" stroke="#94a3b8" stroke-width="1.45" marker-end="url(#arrow-b587a814)" opacity="0.85"/>
<rect x="483.0" y="432.0" width="40.0" height="16" rx="8" fill="#ffffff" opacity="0.92"/><text x="503.0" y="444.0" text-anchor="middle" font-family="Inter, 'Helvetica Neue', Helvetica, Arial, sans-serif" font-size="10.5" fill="#6b7280">Redis</text>
<path d="M 390.3 290.0 Q 390.3 441.0 446.6 441.0 Q 503.0 441.0 503.0 516.5 L 503.0 592.0" fill="none" stroke="#94a3b8" stroke-width="1.45" marker-end="url(#arrow-b587a814)" opacity="0.85"/>
<rect x="483.0" y="432.0" width="40.0" height="16" rx="8" fill="#ffffff" opacity="0.92"/><text x="503.0" y="444.0" text-anchor="middle" font-family="Inter, 'Helvetica Neue', Helvetica, Arial, sans-serif" font-size="10.5" fill="#6b7280">Redis</text>
<path d="M 136.3 290.0 Q 136.3 441.0 416.6 441.0 Q 697.0 441.0 697.0 516.5 L 697.0 592.0" fill="none" stroke="#94a3b8" stroke-width="1.45" marker-end="url(#arrow-b587a814)" opacity="0.85"/>
<rect x="662.0" y="432.0" width="70.0" height="16" rx="8" fill="#ffffff" opacity="0.92"/><text x="697.0" y="444.0" text-anchor="middle" font-family="Inter, 'Helvetica Neue', Helvetica, Arial, sans-serif" font-size="10.5" fill="#6b7280">PostgreSQL</text>
<path d="M 390.3 290.0 Q 390.3 441.0 543.6 441.0 Q 697.0 441.0 697.0 516.5 L 697.0 592.0" fill="none" stroke="#94a3b8" stroke-width="1.45" marker-end="url(#arrow-b587a814)" opacity="0.85"/>
<rect x="662.0" y="432.0" width="70.0" height="16" rx="8" fill="#ffffff" opacity="0.92"/><text x="697.0" y="444.0" text-anchor="middle" font-family="Inter, 'Helvetica Neue', Helvetica, Arial, sans-serif" font-size="10.5" fill="#6b7280">PostgreSQL</text>
<path d="M 136.3 290.0 Q 136.3 441.0 660.6 441.0 Q 1185.0 441.0 1185.0 516.5 L 1185.0 592.0" fill="none" stroke="#94a3b8" stroke-width="1.45" marker-end="url(#arrow-b587a814)" opacity="0.85"/>
<rect x="1162.0" y="432.0" width="46.0" height="16" rx="8" fill="#ffffff" opacity="0.92"/><text x="1185.0" y="444.0" text-anchor="middle" font-family="Inter, 'Helvetica Neue', Helvetica, Arial, sans-serif" font-size="10.5" fill="#6b7280">Stripe</text>
<path d="M 136.3 290.0 Q 136.3 441.0 222.7 441.0 Q 309.0 441.0 309.0 516.5 L 309.0 592.0" fill="none" stroke="#94a3b8" stroke-width="1.45" marker-end="url(#arrow-b587a814)" opacity="0.85"/>
<rect x="289.0" y="432.0" width="40.0" height="16" rx="8" fill="#ffffff" opacity="0.92"/><text x="309.0" y="444.0" text-anchor="middle" font-family="Inter, 'Helvetica Neue', Helvetica, Arial, sans-serif" font-size="10.5" fill="#6b7280">Kafka</text>
<path d="M 390.3 290.0 Q 390.3 441.0 349.6 441.0 Q 309.0 441.0 309.0 516.5 L 309.0 592.0" fill="none" stroke="#94a3b8" stroke-width="1.45" marker-end="url(#arrow-b587a814)" opacity="0.85"/>
<rect x="289.0" y="432.0" width="40.0" height="16" rx="8" fill="#ffffff" opacity="0.92"/><text x="309.0" y="444.0" text-anchor="middle" font-family="Inter, 'Helvetica Neue', Helvetica, Arial, sans-serif" font-size="10.5" fill="#6b7280">Kafka</text>
<path d="M 115.0 474.0 Q 115.0 533.0 212.0 533.0 Q 309.0 533.0 309.0 562.5 L 309.0 592.0" fill="none" stroke="#94a3b8" stroke-width="1.45" marker-end="url(#arrow-b587a814)" opacity="0.85"/>
<rect x="289.0" y="524.0" width="40.0" height="16" rx="8" fill="#ffffff" opacity="0.92"/><text x="309.0" y="536.0" text-anchor="middle" font-family="Inter, 'Helvetica Neue', Helvetica, Arial, sans-serif" font-size="10.5" fill="#6b7280">Kafka</text>
<path d="M 390.3 290.0 Q 390.3 533.0 252.7 533.0 Q 115.0 533.0 115.0 654.5 L 115.0 776.0" fill="none" stroke="#94a3b8" stroke-width="1.45" marker-end="url(#arrow-b587a814)" opacity="0.85"/>
<rect x="92.0" y="524.0" width="46.0" height="16" rx="8" fill="#ffffff" opacity="0.92"/><text x="115.0" y="536.0" text-anchor="middle" font-family="Inter, 'Helvetica Neue', Helvetica, Arial, sans-serif" font-size="10.5" fill="#6b7280">Celery</text>
<path d="M 390.3 290.0 Q 390.3 533.0 349.6 533.0 Q 309.0 533.0 309.0 654.5 L 309.0 776.0" fill="none" stroke="#94a3b8" stroke-width="1.45" marker-end="url(#arrow-b587a814)" opacity="0.85"/>
<rect x="277.0" y="524.0" width="64.0" height="16" rx="8" fill="#ffffff" opacity="0.92"/><text x="309.0" y="536.0" text-anchor="middle" font-family="Inter, 'Helvetica Neue', Helvetica, Arial, sans-serif" font-size="10.5" fill="#6b7280">Amazon S3</text>
<path d="M 139.2 106.0 Q 139.2 165.0 137.8 165.0 Q 136.3 165.0 136.3 194.5 L 136.3 224.0" fill="none" stroke="#94a3b8" stroke-width="1.45" marker-end="url(#arrow-b587a814)" opacity="0.85"/>
<rect x="101.3" y="156.0" width="70.0" height="16" rx="8" fill="#ffffff" opacity="0.92"/><text x="136.3" y="168.0" text-anchor="middle" font-family="Inter, 'Helvetica Neue', Helvetica, Arial, sans-serif" font-size="10.5" fill="#6b7280">depends_on</text>
<g filter="url(#soft-b587a814)"><rect x="40.0" y="224.0" width="192.6" height="66.0" rx="8" fill="#eff6ff" stroke="#2563eb" stroke-width="1.5"/></g>
<text x="136.3" y="255.5" text-anchor="middle" font-family="Inter, 'Helvetica Neue', Helvetica, Arial, sans-serif" font-size="12.5" font-weight="600" fill="#0f172a">acme-api</text><text x="136.3" y="273.0" text-anchor="middle" font-family="Inter, 'Helvetica Neue', Helvetica, Arial, sans-serif" font-size="10.0" fill="#6b7280">Python · FastAPI · 12 files</text>
<g filter="url(#soft-b587a814)"><rect x="40.0" y="40.0" width="198.39999999999998" height="66.0" rx="8" fill="#fdf2f8" stroke="#db2777" stroke-width="1.5"/></g>
<text x="139.2" y="71.5" text-anchor="middle" font-family="Inter, 'Helvetica Neue', Helvetica, Arial, sans-serif" font-size="12.5" font-weight="600" fill="#0f172a">@acme/web</text><text x="139.2" y="89.0" text-anchor="middle" font-family="Inter, 'Helvetica Neue', Helvetica, Arial, sans-serif" font-size="10.0" fill="#6b7280">TypeScript · React · 7 files</text>
<g filter="url(#soft-b587a814)"><rect x="276.6" y="224.0" width="227.39999999999998" height="66.0" rx="8" fill="#fefce8" stroke="#ca8a04" stroke-width="1.5"/></g>
<text x="390.3" y="255.5" text-anchor="middle" font-family="Inter, 'Helvetica Neue', Helvetica, Arial, sans-serif" font-size="12.5" font-weight="600" fill="#0f172a">acme-worker</text><text x="390.3" y="273.0" text-anchor="middle" font-family="Inter, 'Helvetica Neue', Helvetica, Arial, sans-serif" font-size="10.0" fill="#6b7280">Python · Celery · Boto3 · 6 files</text>
<g filter="url(#soft-b587a814)"><rect x="40.0" y="408.0" width="150" height="66.0" rx="8" fill="#f5f3ff" stroke="#7c3aed" stroke-width="1.5"/></g>
<text x="115.0" y="439.5" text-anchor="middle" font-family="Inter, 'Helvetica Neue', Helvetica, Arial, sans-serif" font-size="12.5" font-weight="600" fill="#0f172a">acme-shared</text><text x="115.0" y="457.0" text-anchor="middle" font-family="Inter, 'Helvetica Neue', Helvetica, Arial, sans-serif" font-size="10.0" fill="#6b7280">Python · 4 files</text>
<g filter="url(#soft-b587a814)"><rect x="40.0" y="592.0" width="150" height="66.0" rx="8" fill="#fff7ed" stroke="#ea580c" stroke-width="1.5"/></g>
<text x="115.0" y="623.5" text-anchor="middle" font-family="Inter, 'Helvetica Neue', Helvetica, Arial, sans-serif" font-size="12.5" font-weight="600" fill="#0f172a">AWS</text><text x="115.0" y="641.0" text-anchor="middle" font-family="Inter, 'Helvetica Neue', Helvetica, Arial, sans-serif" font-size="10.0" fill="#6b7280">Amazon Web Services</text>
<g filter="url(#soft-b587a814)"><rect x="816.0" y="592.0" width="250" height="66.0" rx="8" fill="#fff7ed" stroke="#ea580c" stroke-width="1.5"/></g>
<text x="941.0" y="623.5" text-anchor="middle" font-family="Inter, 'Helvetica Neue', Helvetica, Arial, sans-serif" font-size="12.5" font-weight="600" fill="#0f172a">shipping.acme-logistics.example</text><text x="941.0" y="641.0" text-anchor="middle" font-family="Inter, 'Helvetica Neue', Helvetica, Arial, sans-serif" font-size="10.0" fill="#6b7280">HTTPS</text>
<g filter="url(#soft-b587a814)"><path d="M 428.0 603.0 a 75.0 11.0 0 0 1 150 0 v 44.0 a 75.0 11.0 0 0 1 -150 0 z" fill="#ecfeff" stroke="#0891b2" stroke-width="1.5"/><path d="M 428.0 603.0 a 75.0 11.0 0 0 0 150 0" fill="none" stroke="#0891b2" stroke-width="1.2" opacity="0.7"/></g>
<text x="503.0" y="623.5" text-anchor="middle" font-family="Inter, 'Helvetica Neue', Helvetica, Arial, sans-serif" font-size="12.5" font-weight="600" fill="#0f172a">Redis</text><text x="503.0" y="641.0" text-anchor="middle" font-family="Inter, 'Helvetica Neue', Helvetica, Arial, sans-serif" font-size="10.0" fill="#6b7280">Redis</text>
<g filter="url(#soft-b587a814)"><path d="M 622.0 603.0 a 75.0 11.0 0 0 1 150 0 v 44.0 a 75.0 11.0 0 0 1 -150 0 z" fill="#ecfeff" stroke="#0891b2" stroke-width="1.5"/><path d="M 622.0 603.0 a 75.0 11.0 0 0 0 150 0" fill="none" stroke="#0891b2" stroke-width="1.2" opacity="0.7"/></g>
<text x="697.0" y="623.5" text-anchor="middle" font-family="Inter, 'Helvetica Neue', Helvetica, Arial, sans-serif" font-size="12.5" font-weight="600" fill="#0f172a">PostgreSQL</text><text x="697.0" y="641.0" text-anchor="middle" font-family="Inter, 'Helvetica Neue', Helvetica, Arial, sans-serif" font-size="10.0" fill="#6b7280">PostgreSQL</text>
<g filter="url(#soft-b587a814)"><rect x="1110.0" y="592.0" width="150" height="66.0" rx="8" fill="#fff7ed" stroke="#ea580c" stroke-width="1.5"/></g>
<text x="1185.0" y="623.5" text-anchor="middle" font-family="Inter, 'Helvetica Neue', Helvetica, Arial, sans-serif" font-size="12.5" font-weight="600" fill="#0f172a">Stripe</text><text x="1185.0" y="641.0" text-anchor="middle" font-family="Inter, 'Helvetica Neue', Helvetica, Arial, sans-serif" font-size="10.0" fill="#6b7280">Stripe</text>
<g filter="url(#soft-b587a814)"><rect x="234.0" y="592.0" width="150" height="66.0" rx="6" fill="#fefce8" stroke="#ca8a04" stroke-width="1.5"/><line x1="246.0" y1="592.0" x2="246.0" y2="658.0" stroke="#ca8a04" opacity="0.5"/><line x1="372.0" y1="592.0" x2="372.0" y2="658.0" stroke="#ca8a04" opacity="0.5"/></g>
<text x="309.0" y="623.5" text-anchor="middle" font-family="Inter, 'Helvetica Neue', Helvetica, Arial, sans-serif" font-size="12.5" font-weight="600" fill="#0f172a">Apache Kafka</text><text x="309.0" y="641.0" text-anchor="middle" font-family="Inter, 'Helvetica Neue', Helvetica, Arial, sans-serif" font-size="10.0" fill="#6b7280">Kafka</text>
<g filter="url(#soft-b587a814)"><rect x="40.0" y="776.0" width="150" height="66.0" rx="6" fill="#fefce8" stroke="#ca8a04" stroke-width="1.5"/><line x1="52.0" y1="776.0" x2="52.0" y2="842.0" stroke="#ca8a04" opacity="0.5"/><line x1="178.0" y1="776.0" x2="178.0" y2="842.0" stroke="#ca8a04" opacity="0.5"/></g>
<text x="115.0" y="807.5" text-anchor="middle" font-family="Inter, 'Helvetica Neue', Helvetica, Arial, sans-serif" font-size="12.5" font-weight="600" fill="#0f172a">Celery workers</text><text x="115.0" y="825.0" text-anchor="middle" font-family="Inter, 'Helvetica Neue', Helvetica, Arial, sans-serif" font-size="10.0" fill="#6b7280">Celery</text>
<g filter="url(#soft-b587a814)"><path d="M 234.0 787.0 a 75.0 11.0 0 0 1 150 0 v 44.0 a 75.0 11.0 0 0 1 -150 0 z" fill="#ecfeff" stroke="#0891b2" stroke-width="1.5"/><path d="M 234.0 787.0 a 75.0 11.0 0 0 0 150 0" fill="none" stroke="#0891b2" stroke-width="1.2" opacity="0.7"/></g>
<text x="309.0" y="807.5" text-anchor="middle" font-family="Inter, 'Helvetica Neue', Helvetica, Arial, sans-serif" font-size="12.5" font-weight="600" fill="#0f172a">AWS S3</text><text x="309.0" y="825.0" text-anchor="middle" font-family="Inter, 'Helvetica Neue', Helvetica, Arial, sans-serif" font-size="10.0" fill="#6b7280">Amazon S3</text>
<g transform="translate(24,852)"><rect x="0.0" y="-10" width="12" height="12" rx="3" fill="#2563eb" opacity="0.85"/><text x="18.0" y="0" font-family="Inter, 'Helvetica Neue', Helvetica, Arial, sans-serif" font-size="11" fill="#6b7280">Application</text><rect x="98.2" y="-10" width="12" height="12" rx="3" fill="#db2777" opacity="0.85"/><text x="116.2" y="0" font-family="Inter, 'Helvetica Neue', Helvetica, Arial, sans-serif" font-size="11" fill="#6b7280">Frontend</text><rect x="177.8" y="-10" width="12" height="12" rx="3" fill="#0891b2" opacity="0.85"/><text x="195.8" y="0" font-family="Inter, 'Helvetica Neue', Helvetica, Arial, sans-serif" font-size="11" fill="#6b7280">Datastore</text><rect x="263.6" y="-10" width="12" height="12" rx="3" fill="#ea580c" opacity="0.85"/><text x="281.6" y="0" font-family="Inter, 'Helvetica Neue', Helvetica, Arial, sans-serif" font-size="11" fill="#6b7280">External</text></g>
</g></svg>