<?xml version="1.0" encoding="UTF-8"?>
<svg xmlns="http://www.w3.org/2000/svg" viewBox="0 0 1108 913" width="1108" height="913" role="img" aria-label="acme-api — end-to-end overview">
<defs>
  <marker id="arrow-0ddc48d5" viewBox="0 0 10 10" refX="9" refY="5" markerWidth="7" markerHeight="7"
          orient="auto-start-reverse"><path d="M 0 0 L 10 5 L 0 10 z" fill="#64748b"/></marker>
  <marker id="arrow-open-0ddc48d5" viewBox="0 0 10 10" refX="9" refY="5" markerWidth="8" markerHeight="8"
          orient="auto-start-reverse"><path d="M 0 0 L 10 5 L 0 10" fill="none" stroke="#64748b"
          stroke-width="1.6"/></marker>
  <filter id="soft-0ddc48d5" x="-20%" y="-20%" width="140%" height="140%">
    <feDropShadow dx="0" dy="1.5" stdDeviation="2.2" flood-color="#0f172a" flood-opacity="0.10"/>
  </filter>
</defs>
<rect width="100%" height="100%" fill="#ffffff"/>
<text x="28" y="34" font-family="Inter, 'Helvetica Neue', Helvetica, Arial, sans-serif" font-size="18" font-weight="700" fill="#111827">acme-api — end-to-end overview</text>
<text x="28" y="50" font-family="Inter, 'Helvetica Neue', Helvetica, Arial, sans-serif" font-size="11.5" fill="#6b7280">High level path through acme-api: entrypoints, processing and the systems it touches.</text>
<g transform="translate(0,58)">
<rect x="24" y="40" width="1060" height="147" fill="#f8fafc" stroke="#e5e7eb" stroke-width="1"/>
<text x="34" y="117.5" font-family="Inter, 'Helvetica Neue', Helvetica, Arial, sans-serif" font-size="12.5" font-weight="700" fill="#6b7280" dominant-baseline="middle">Client</text>
<line x1="144.0" y1="40" x2="144.0" y2="187" stroke="#e5e7eb"/>
<rect x="24" y="195" width="1060" height="147" fill="#f1f5f9" stroke="#e5e7eb" stroke-width="1"/>
<text x="34" y="272.5" font-family="Inter, 'Helvetica Neue', Helvetica, Arial, sans-serif" font-size="12.5" font-weight="700" fill="#6b7280" dominant-baseline="middle">Interface</text>
<line x1="144.0" y1="195" x2="144.0" y2="342" stroke="#e5e7eb"/>
<rect x="24" y="350" width="1060" height="147" fill="#f8fafc" stroke="#e5e7eb" stroke-width="1"/>
<text x="34" y="427.5" font-family="Inter, 'Helvetica Neue', Helvetica, Arial, sans-serif" font-size="12.5" font-weight="700" fill="#6b7280" dominant-baseline="middle">Application</text>
<line x1="144.0" y1="350" x2="144.0" y2="497" stroke="#e5e7eb"/>
<rect x="24" y="505" width="1060" height="147" fill="#f1f5f9" stroke="#e5e7eb" stroke-width="1"/>
<text x="34" y="582.5" font-family="Inter, 'Helvetica Neue', Helvetica, Arial, sans-serif" font-size="12.5" font-weight="700" fill="#6b7280" dominant-baseline="middle">Data</text>
<line x1="144.0" y1="505" x2="144.0" y2="652" stroke="#e5e7eb"/>
<rect x="24" y="660" width="1060" height="147" fill="#f8fafc" stroke="#e5e7eb" stroke-width="1"/>
<text x="34" y="737.5" font-family="Inter, 'Helvetica Neue', Helvetica, Arial, sans-serif" font-size="12.5" font-weight="700" fill="#6b7280" dominant-baseline="middle">External</text>
<line x1="144.0" y1="660" x2="144.0" y2="807" stroke="#e5e7eb"/>
<path d="M 301.4 90.8 Q 332.4 168.2 347.9 207.0 L 363.4 245.8" fill="none" stroke="#94a3b8" stroke-width="1.45" marker-end="url(#arrow-0ddc48d5)" opacity="0.85"/>
<path d="M 519.4 245.8 Q 550.4 323.2 565.9 362.0 L 581.4 400.8" fill="none" stroke="#94a3b8" stroke-width="1.45" marker-end="url(#arrow-0ddc48d5)" opacity="0.85"/>
<path d="M 662.8 425.5 Q 784.5 555.8 845.3 620.9 L 906.2 686.0" fill="none" stroke="#94a3b8" stroke-width="1.45" stroke-dasharray="6 4" marker-end="url(#arrow-0ddc48d5)" opacity="0.85"/>
<rect x="767.5" y="546.8" width="34.0" height="16" rx="8" fill="#ffffff" opacity="0.92"/><text x="784.5" y="558.8" text-anchor="middle" font-family="Inter, 'Helvetica Neue', Helvetica, Arial, sans-serif" font-size="10.5" fill="#6b7280">call</text>
<path d="M 744.2 400.8 Q 793.2 478.2 817.7 517.0 L 842.2 555.8" fill="none" stroke="#94a3b8" stroke-width="1.45" stroke-dasharray="6 4" marker-end="url(#arrow-0ddc48d5)" opacity="0.85"/>
<rect x="758.2" y="469.2" width="70.0" height="16" rx="8" fill="#ffffff" opacity="0.92"/><text x="793.2" y="481.2" text-anchor="middle" font-family="Inter, 'Helvetica Neue', Helvetica, Arial, sans-serif" font-size="10.5" fill="#6b7280">read/write</text>
<path d="M 744.2 400.8 Q 793.2 508.0 817.7 561.6 L 842.2 615.2" fill="none" stroke="#94a3b8" stroke-width="1.45" stroke-dasharray="6 4" marker-end="url(#arrow-0ddc48d5)" opacity="0.85"/>
<rect x="758.2" y="499.0" width="70.0" height="16" rx="8" fill="#ffffff" opacity="0.92"/><text x="793.2" y="511.0" text-anchor="middle" font-family="Inter, 'Helvetica Neue', Helvetica, Arial, sans-serif" font-size="10.5" fill="#6b7280">read/write</text>
<path d="M 662.8 425.5 Q 784.5 585.5 845.3 665.5 L 906.2 745.5" fill="none" stroke="#94a3b8" stroke-width="1.45" stroke-dasharray="6 4" marker-end="url(#arrow-0ddc48d5)" opacity="0.85"/>
<rect x="767.5" y="576.5" width="34.0" height="16" rx="8" fill="#ffffff" opacity="0.92"/><text x="784.5" y="588.5" text-anchor="middle" font-family="Inter, 'Helvetica Neue', Helvetica, Arial, sans-serif" font-size="10.5" fill="#6b7280">call</text>
<path d="M 662.8 425.5 Q 784.5 615.2 845.3 710.1 L 906.2 805.0" fill="none" stroke="#94a3b8" stroke-width="1.45" stroke-dasharray="6 4" marker-end="url(#arrow-0ddc48d5)" opacity="0.85"/>
<rect x="767.5" y="606.2" width="34.0" height="16" rx="8" fill="#ffffff" opacity="0.92"/><text x="784.5" y="618.2" text-anchor="middle" font-family="Inter, 'Helvetica Neue', Helvetica, Arial, sans-serif" font-size="10.5" fill="#6b7280">call</text>
<path d="M 662.8 376.0 Q 784.5 245.8 845.3 180.6 L 906.2 115.5" fill="none" stroke="#94a3b8" stroke-width="1.45" marker-end="url(#arrow-0ddc48d5)" opacity="0.85"/>
<g filter="url(#soft-0ddc48d5)"><rect x="172.0" y="66.0" width="129.38" height="49.5" rx="24.75" ry="24.75" fill="#f0fdf4" stroke="#16a34a" stroke-width="1.6"/></g>
<text x="236.7" y="95.5" text-anchor="middle" font-family="Inter, 'Helvetica Neue', Helvetica, Arial, sans-serif" font-size="12.5" font-weight="600" fill="#0f172a">Actor / caller</text>
<g filter="url(#soft-0ddc48d5)"><rect x="363.38" y="221.0" width="156.06" height="49.5" rx="8" fill="#f8fafc" stroke="#2563eb" stroke-width="1.5"/></g>
<text x="441.4" y="250.5" text-anchor="middle" font-family="Inter, 'Helvetica Neue', Helvetica, Arial, sans-serif" font-size="12.5" font-weight="600" fill="#0f172a">4 http endpoint(s)</text>
<g filter="url(#soft-0ddc48d5)"><rect x="581.44" y="376.0" width="162.73" height="49.5" rx="8" fill="#eef2ff" stroke="#4338ca" stroke-width="1.5"/><line x1="589.44" y1="376.0" x2="589.44" y2="425.5" stroke="#4338ca" opacity="0.55"/><line x1="736.1700000000001" y1="376.0" x2="736.1700000000001" y2="425.5" stroke="#4338ca" opacity="0.55"/></g>
<text x="662.8" y="405.5" text-anchor="middle" font-family="Inter, 'Helvetica Neue', Helvetica, Arial, sans-serif" font-size="12.5" font-weight="600" fill="#0f172a">acme-api processing</text>
<g filter="url(#soft-0ddc48d5)"><rect x="806.1700000000001" y="686.0" width="200" height="65.0" rx="8" fill="#fff7ed" stroke="#ea580c" stroke-width="1.5"/></g>
<text x="906.2" y="715.5" text-anchor="middle" font-family="Inter, 'Helvetica Neue', Helvetica, Arial, sans-serif" font-size="12.5" font-weight="600" fill="#0f172a">shipping.acme-logistics-</text><text x="906.2" y="731.0" text-anchor="middle" font-family="Inter, 'Helvetica Neue', Helvetica, Arial, sans-serif" font-size="12.5" font-weight="600" fill="#0f172a">.example</text>
<g filter="url(#soft-0ddc48d5)"><path d="M 842.1700000000001 539.25 a 64.0 8.25 0 0 1 128 0 v 33.0 a 64.0 8.25 0 0 1 -128 0 z" fill="#ecfeff" stroke="#0891b2" stroke-width="1.5"/><path d="M 842.1700000000001 539.25 a 64.0 8.25 0 0 0 128 0" fill="none" stroke="#0891b2" stroke-width="1.2" opacity="0.7"/></g>
<text x="906.2" y="560.5" text-anchor="middle" font-family="Inter, 'Helvetica Neue', Helvetica, Arial, sans-serif" font-size="12.5" font-weight="600" fill="#0f172a">Redis</text>
<g filter="url(#soft-0ddc48d5)"><path d="M 842.1700000000001 598.75 a 64.0 8.25 0 0 1 128 0 v 33.0 a 64.0 8.25 0 0 1 -128 0 z" fill="#ecfeff" stroke="#0891b2" stroke-width="1.5"/><path d="M 842.1700000000001 598.75 a 64.0 8.25 0 0 0 128 0" fill="none" stroke="#0891b2" stroke-width="1.2" opacity="0.7"/></g>
<text x="906.2" y="620.0" text-anchor="middle" font-family="Inter, 'Helvetica Neue', Helvetica, Arial, sans-serif" font-size="12.5" font-weight="600" fill="#0f172a">PostgreSQL</text>
<g filter="url(#soft-0ddc48d5)"><rect x="842.1700000000001" y="745.5" width="128" height="49.5" rx="8" fill="#fff7ed" stroke="#ea580c" stroke-width="1.5"/></g>
<text x="906.2" y="775.0" text-anchor="middle" font-family="Inter, 'Helvetica Neue', Helvetica, Arial, sans-serif" font-size="12.5" font-weight="600" fill="#0f172a">Stripe</text>
<g filter="url(#soft-0ddc48d5)"><rect x="842.1700000000001" y="805.0" width="128" height="49.5" rx="8" fill="#fff7ed" stroke="#ea580c" stroke-width="1.5"/></g>
<text x="906.2" y="834.5" text-anchor="middle" font-family="Inter, 'Helvetica Neue', Helvetica, Arial, sans-serif" font-size="12.5" font-weight="600" fill="#0f172a">Apache Kafka</text>
<g filter="url(#soft-0ddc48d5)"><rect x="831.4750000000001" y="66.0" width="149.39" height="49.5" rx="24.75" ry="24.75" fill="#fef2f2" stroke="#dc2626" stroke-width="2.4"/></g>
<text x="906.2" y="95.5" text-anchor="middle" font-family="Inter, 'Helvetica Neue', Helvetica, Arial, sans-serif" font-size="12.5" font-weight="600" fill="#0f172a">Response / result</text>
<g transform="translate(24,825)"><rect x="0.0" y="-10" width="12" height="12" rx="3" fill="#16a34a" opacity="0.85"/><text x="18.0" y="0" font-family="Inter, 'Helvetica Neue', Helvetica, Arial, sans-serif" font-size="11" fill="#6b7280">Start</text><rect x="61.0" y="-10" width="12" height="12" rx="3" fill="#2563eb" opacity="0.85"/><text x="79.0" y="0" font-family="Inter, 'Helvetica Neue', Helvetica, Arial, sans-serif" font-size="11" fill="#6b7280">Task</text><rect x="115.8" y="-10" width="12" height="12" rx="3" fill="#d97706" opacity="0.85"/><text x="133.8" y="0" font-family="Inter, 'Helvetica Neue', Helvetica, Arial, sans-serif" font-size="11" fill="#6b7280">Decision</text><rect x="195.39999999999998" y="-10" width="12" height="12" rx="3" fill="#0891b2" opacity="0.85"/><text x="213.39999999999998" y="0" font-family="Inter, 'Helvetica Neue', Helvetica, Arial, sans-serif" font-size="11" fill="#6b7280">Data store</text><rect x="287.4" y="-10" width="12" height="12" rx="3" fill="#dc2626" opacity="0.85"/><text x="305.4" y="0" font-family="Inter, 'Helvetica Neue', Helvetica, Arial, sans-serif" font-size="11" fill="#6b7280">End</text></g>
</g></svg>